<svg xmlns="http://www.w3.org/2000/svg" xmlns:xlink="http://www.w3.org/1999/xlink" width="500" zoomAndPan="magnify" viewBox="0 0 375 374.999991" height="500" preserveAspectRatio="xMidYMid meet" version="1.0"><defs><clipPath id="3dac628006"><path d="M 112.5 113.4375 L 261 113.4375 L 261 261.9375 L 112.5 261.9375 Z M 112.5 113.4375 " clip-rule="nonzero"/></clipPath></defs><rect x="-37.5" width="450" fill="#ffffff" y="-37.499999" height="449.999989" fill-opacity="1"/><rect x="-37.5" width="450" fill="#ffffff" y="-37.499999" height="449.999989" fill-opacity="1"/><g clip-path="url(#3dac628006)"><path fill="#000000" d="M 249.292969 121.496094 C 249.546875 120.523438 250.167969 119.710938 251.042969 119.207031 C 251.621094 118.875 252.257812 118.703125 252.90625 118.703125 C 253.230469 118.703125 253.570312 118.746094 253.894531 118.835938 C 255.882812 119.371094 257.082031 121.4375 256.546875 123.441406 C 256.277344 124.414062 255.65625 125.226562 254.796875 125.726562 C 253.921875 126.226562 252.917969 126.363281 251.945312 126.101562 C 250.972656 125.84375 250.167969 125.21875 249.675781 124.347656 C 249.167969 123.476562 249.023438 122.464844 249.292969 121.496094 Z M 234.796875 190.273438 C 234.976562 190.320312 235.160156 190.34375 235.339844 190.34375 C 236.269531 190.34375 237.117188 189.722656 237.367188 188.785156 L 252.960938 130.441406 C 256.445312 130.417969 259.648438 128.074219 260.59375 124.53125 C 261.738281 120.285156 259.210938 115.90625 254.980469 114.769531 C 252.917969 114.214844 250.773438 114.5 248.941406 115.566406 C 247.105469 116.628906 245.792969 118.347656 245.230469 120.40625 C 244.695312 122.460938 244.976562 124.609375 246.035156 126.453125 C 246.738281 127.675781 247.726562 128.660156 248.914062 129.351562 L 233.3125 187.695312 C 233.011719 188.816406 233.675781 189.972656 234.796875 190.273438 Z M 216.847656 117.644531 C 218.914062 117.644531 220.601562 119.332031 220.601562 121.410156 C 220.601562 123.484375 218.914062 125.167969 216.847656 125.167969 C 214.777344 125.167969 213.09375 123.484375 213.09375 121.410156 C 213.09375 119.332031 214.777344 117.644531 216.847656 117.644531 Z M 214.746094 129.097656 L 214.746094 189.496094 C 214.746094 190.660156 215.6875 191.601562 216.847656 191.601562 C 218.007812 191.601562 218.945312 190.660156 218.945312 189.496094 L 218.945312 129.097656 C 222.316406 128.167969 224.796875 125.074219 224.796875 121.410156 C 224.796875 117.011719 221.230469 113.4375 216.847656 113.4375 C 212.460938 113.4375 208.894531 117.011719 208.894531 121.410156 C 208.894531 125.074219 211.378906 128.167969 214.746094 129.097656 Z M 177.523438 120.585938 C 178.027344 119.714844 178.835938 119.09375 179.804688 118.835938 C 180.128906 118.746094 180.453125 118.703125 180.773438 118.703125 C 182.433594 118.703125 183.953125 119.8125 184.402344 121.496094 C 184.9375 123.5 183.746094 125.566406 181.746094 126.101562 C 180.777344 126.363281 179.765625 126.226562 178.898438 125.726562 C 178.03125 125.226562 177.410156 124.414062 177.148438 123.441406 C 176.890625 122.472656 177.023438 121.457031 177.523438 120.585938 Z M 176.800781 129.371094 C 178.015625 130.078125 179.367188 130.4375 180.734375 130.441406 L 196.328125 188.785156 C 196.578125 189.722656 197.425781 190.34375 198.355469 190.34375 C 198.535156 190.34375 198.714844 190.320312 198.898438 190.273438 C 200.019531 189.972656 200.679688 188.816406 200.382812 187.695312 L 184.789062 129.347656 C 187.804688 127.582031 189.40625 123.949219 188.457031 120.40625 C 187.90625 118.347656 186.59375 116.628906 184.75 115.566406 C 182.914062 114.5 180.769531 114.214844 178.71875 114.769531 C 176.667969 115.320312 174.953125 116.640625 173.890625 118.480469 C 172.828125 120.328125 172.546875 122.472656 173.097656 124.53125 C 173.644531 126.589844 174.960938 128.304688 176.800781 129.371094 Z M 250.296875 224.257812 L 209.703125 239.9375 C 209.273438 240.105469 208.828125 240.277344 208.378906 240.453125 C 202.433594 242.773438 195.03125 245.660156 189.324219 243.996094 L 167.699219 237.703125 C 164.0625 236.644531 160.488281 236.949219 157.085938 238.609375 L 150.527344 241.804688 L 138.375 212.554688 C 143.414062 210.171875 148.746094 207.625 154.136719 204.984375 C 164.480469 199.910156 170.457031 197.671875 182.816406 206.460938 C 183.019531 206.605469 183.246094 206.714844 183.488281 206.777344 L 203.09375 212.046875 C 204.917969 212.535156 206.445312 213.714844 207.398438 215.367188 C 208.351562 217.019531 208.605469 218.9375 208.117188 220.765625 C 207.628906 222.59375 206.453125 224.128906 204.804688 225.078125 C 203.152344 226.035156 201.242188 226.292969 199.417969 225.800781 L 173.359375 218.804688 C 172.238281 218.503906 171.089844 219.167969 170.789062 220.292969 C 170.488281 221.414062 171.152344 222.566406 172.273438 222.867188 L 198.328125 229.867188 C 201.238281 230.648438 204.28125 230.246094 206.902344 228.726562 C 209.523438 227.207031 211.394531 224.765625 212.175781 221.855469 C 212.511719 220.582031 212.628906 219.285156 212.523438 218.007812 L 239.671875 210.023438 C 248.644531 207.382812 254.878906 208.398438 256.335938 212.726562 C 257.730469 216.832031 254.726562 222.539062 250.296875 224.257812 Z M 149.457031 251.953125 C 149.695312 251.378906 149.691406 250.738281 149.449219 250.15625 L 131.84375 207.769531 C 131.46875 206.871094 130.597656 206.328125 129.679688 206.328125 C 129.382812 206.328125 129.082031 206.386719 128.785156 206.507812 L 118.390625 210.835938 C 117.804688 211.082031 117.351562 211.527344 117.117188 212.105469 C 116.882812 212.679688 116.886719 213.316406 117.128906 213.902344 L 134.730469 256.285156 C 135.230469 257.480469 136.601562 258.042969 137.789062 257.546875 L 148.1875 253.21875 C 148.773438 252.976562 149.226562 252.527344 149.457031 251.953125 Z M 260.3125 211.375 C 259.253906 208.242188 256.730469 205.964844 253.1875 204.964844 C 249.390625 203.890625 244.441406 204.230469 238.492188 205.984375 L 211.402344 213.953125 C 211.285156 213.71875 211.164062 213.492188 211.035156 213.261719 C 209.519531 210.636719 207.089844 208.757812 204.179688 207.976562 L 184.933594 202.808594 C 170.890625 192.941406 163.363281 195.777344 152.292969 201.203125 C 146.988281 203.804688 141.730469 206.308594 136.757812 208.667969 L 135.71875 206.152344 C 134.335938 202.824219 130.503906 201.238281 127.175781 202.621094 L 116.78125 206.949219 C 115.15625 207.625 113.902344 208.886719 113.238281 210.5 C 112.574219 212.113281 112.582031 213.898438 113.253906 215.519531 L 130.859375 257.902344 C 131.902344 260.417969 134.339844 261.9375 136.902344 261.9375 C 137.738281 261.9375 138.582031 261.773438 139.398438 261.433594 L 149.796875 257.105469 C 151.417969 256.433594 152.675781 255.171875 153.34375 253.558594 C 154.003906 251.945312 154 250.160156 153.324219 248.535156 L 152.144531 245.699219 L 158.921875 242.394531 C 161.394531 241.1875 163.882812 240.976562 166.527344 241.746094 L 188.15625 248.039062 C 189.746094 248.503906 191.394531 248.703125 193.058594 248.703125 C 198.808594 248.703125 204.835938 246.351562 209.902344 244.375 C 210.347656 244.199219 210.785156 244.03125 211.214844 243.863281 L 251.804688 228.179688 C 258.367188 225.644531 262.429688 217.632812 260.3125 211.375 Z M 260.3125 211.375 " fill-opacity="1" fill-rule="evenodd"/></g></svg>