<svg xmlns="http://www.w3.org/2000/svg" xmlns:xlink="http://www.w3.org/1999/xlink" width="500" zoomAndPan="magnify" viewBox="0 0 375 374.999991" height="500" preserveAspectRatio="xMidYMid meet" version="1.0"><defs><clipPath id="e14522c339"><path d="M 114 127 L 262.5 127 L 262.5 249.5625 L 114 249.5625 Z M 114 127 " clip-rule="nonzero"/></clipPath></defs><rect x="-37.5" width="450" fill="#ffffff" y="-37.499999" height="449.999989" fill-opacity="1"/><rect x="-37.5" width="450" fill="#ffffff" y="-37.499999" height="449.999989" fill-opacity="1"/><g clip-path="url(#e14522c339)"><path fill="#000000" d="M 262.269531 140.019531 C 262.039062 136.089844 260.082031 132.394531 256.96875 129.964844 C 252.132812 126.039062 244.988281 126.039062 240.035156 129.851562 C 236.808594 132.277344 234.964844 135.859375 234.621094 139.90625 C 234.621094 140.480469 234.273438 141.058594 233.8125 141.40625 L 187.730469 177.691406 C 184.042969 180.8125 181.855469 185.320312 181.625 190.054688 C 181.507812 192.019531 181.855469 193.871094 182.316406 195.71875 C 180.703125 195.71875 179.089844 195.601562 177.476562 195.601562 C 177.476562 195.601562 177.476562 195.488281 177.476562 195.488281 C 176.902344 195.488281 176.324219 195.488281 175.863281 195.371094 C 175.863281 195.371094 175.863281 195.488281 175.75 195.488281 C 173.675781 195.371094 171.601562 195.257812 169.644531 195.140625 C 169.988281 194.792969 170.335938 194.5625 170.679688 194.214844 C 179.894531 185.550781 182.546875 161.746094 182.546875 160.703125 C 182.660156 160.011719 182.429688 159.433594 181.96875 158.972656 C 181.507812 158.507812 180.933594 158.164062 180.242188 158.164062 C 179.320312 158.164062 156.507812 158.046875 147.292969 166.714844 C 140.148438 173.417969 138.074219 181.96875 141.417969 189.363281 C 138.074219 187.976562 136.464844 186.472656 136.464844 185.433594 C 136.464844 184.625 136.003906 183.933594 135.425781 183.46875 C 135.425781 183.238281 135.425781 182.890625 135.425781 182.660156 C 135.425781 182.3125 135.425781 182.082031 135.425781 181.734375 C 135.425781 181.503906 135.425781 181.160156 135.425781 180.8125 C 135.425781 180.464844 135.425781 180.117188 135.542969 179.886719 C 135.65625 178.730469 135.773438 177.691406 136.117188 176.535156 L 135.542969 175.496094 L 136.808594 171.566406 C 137.15625 170.410156 136.578125 169.023438 135.3125 168.679688 C 134.160156 168.214844 132.777344 168.910156 132.429688 170.179688 L 132.316406 170.410156 L 130.242188 167.058594 C 129.550781 166.019531 128.167969 165.671875 127.015625 166.367188 C 125.980469 167.058594 125.632812 168.445312 126.324219 169.601562 L 128.515625 173.183594 L 126.902344 173.183594 C 125.632812 173.183594 124.597656 174.226562 124.597656 175.496094 C 124.597656 176.765625 125.632812 177.808594 126.902344 177.808594 L 131.394531 177.808594 L 133.46875 181.160156 C 128.976562 182.890625 124.597656 181.160156 121.484375 176.191406 C 118.605469 171.566406 119.414062 161.28125 120.21875 155.621094 C 125.75 157.355469 135.195312 161.050781 138.074219 165.789062 C 138.652344 166.828125 139.226562 167.753906 139.574219 168.792969 C 140.496094 167.40625 141.53125 166.136719 142.800781 164.75 C 142.570312 164.285156 142.339844 163.824219 141.992188 163.363281 C 136.925781 155.15625 119.644531 150.652344 118.953125 150.535156 C 118.375 150.421875 117.683594 150.535156 117.109375 150.765625 C 116.53125 151.113281 116.1875 151.691406 116.070312 152.269531 C 115.957031 152.960938 112.5 170.527344 117.570312 178.617188 C 120.796875 183.816406 125.289062 186.472656 130.011719 186.472656 C 130.585938 186.472656 131.046875 186.472656 131.625 186.359375 C 131.164062 189.246094 130.933594 192.136719 130.933594 195.027344 C 130.933594 224.953125 155.242188 249.335938 185.082031 249.335938 C 214.917969 249.335938 239.226562 224.953125 239.226562 195.027344 C 239.226562 192.019531 238.996094 189.015625 238.535156 186.128906 C 238.535156 185.894531 238.652344 185.664062 238.652344 185.433594 C 238.652344 183.238281 237.269531 181.273438 234.964844 179.65625 L 232.199219 183.238281 C 233.121094 183.816406 233.699219 184.394531 233.929688 184.855469 C 233.929688 184.972656 233.929688 185.203125 233.929688 185.320312 C 233.929688 187.167969 228.859375 190.054688 219.296875 192.253906 L 248.097656 155.390625 C 248.445312 154.925781 249.019531 154.582031 249.597656 154.582031 C 252.9375 154.347656 256.046875 152.960938 258.351562 150.535156 C 261.003906 147.761719 262.5 143.949219 262.269531 140.019531 Z M 150.632812 169.949219 C 156.855469 164.054688 171.832031 162.902344 177.824219 162.667969 C 176.902344 168.910156 174.019531 184.742188 167.683594 190.632812 C 165.957031 192.253906 164.34375 193.40625 162.613281 194.214844 C 158.46875 193.753906 154.894531 193.0625 151.671875 192.367188 L 156.625 192.597656 C 156.625 192.597656 156.625 192.597656 156.738281 192.597656 C 158.007812 192.597656 159.042969 191.675781 159.042969 190.402344 C 159.042969 189.132812 158.121094 188.09375 156.855469 187.976562 L 154.550781 187.859375 L 157.546875 185.085938 L 164.457031 185.320312 C 164.457031 185.320312 164.457031 185.320312 164.574219 185.320312 C 165.839844 185.320312 166.878906 184.394531 166.878906 183.121094 C 166.878906 181.851562 165.957031 180.8125 164.6875 180.695312 L 162.386719 180.582031 L 167.222656 175.957031 C 168.144531 175.035156 168.144531 173.648438 167.339844 172.722656 C 166.417969 171.796875 165.035156 171.796875 164.113281 172.605469 L 163.191406 173.53125 L 163.304688 171.566406 C 163.421875 170.296875 162.5 169.140625 161.234375 169.023438 C 159.964844 168.910156 158.8125 169.832031 158.699219 171.105469 L 158.121094 178.152344 L 155.472656 180.695312 L 155.585938 178.730469 C 155.703125 177.460938 154.78125 176.304688 153.515625 176.191406 C 152.246094 176.074219 151.09375 177 150.980469 178.269531 L 150.402344 185.320312 L 146.714844 188.785156 C 142.800781 183.007812 144.296875 175.957031 150.632812 169.949219 Z M 185.082031 244.832031 C 157.777344 244.832031 135.542969 222.527344 135.542969 195.140625 C 135.542969 193.984375 135.542969 192.828125 135.65625 191.675781 C 136.347656 192.136719 137.269531 192.714844 138.191406 193.175781 C 138.191406 193.0625 138.074219 193.0625 138.074219 192.945312 C 148.445312 198.261719 169.527344 200.339844 185.082031 200.339844 C 196.484375 200.339844 210.886719 199.183594 221.832031 196.527344 L 221.714844 196.644531 C 227.132812 195.371094 231.507812 193.753906 234.503906 191.675781 C 234.621094 192.828125 234.621094 193.984375 234.621094 195.140625 C 234.621094 222.527344 212.386719 244.832031 185.082031 244.832031 Z M 255.011719 147.300781 C 253.398438 148.917969 251.441406 149.84375 249.136719 149.957031 C 247.292969 150.074219 245.449219 150.996094 244.296875 152.617188 L 212.269531 193.640625 C 210.195312 193.984375 208.007812 194.214844 205.703125 194.5625 L 205.816406 194.449219 C 201.785156 194.910156 197.292969 195.257812 192.453125 195.371094 C 192.453125 195.371094 192.453125 195.488281 192.570312 195.488281 C 190.839844 195.601562 189.113281 195.601562 187.386719 195.601562 C 186.695312 193.871094 186.347656 192.019531 186.347656 190.171875 C 186.464844 186.589844 188.074219 183.46875 190.726562 181.160156 L 236.808594 144.988281 C 238.304688 143.832031 239.34375 141.984375 239.457031 140.136719 C 239.6875 137.476562 240.957031 135.050781 243.03125 133.433594 C 244.644531 132.160156 246.601562 131.585938 248.558594 131.585938 C 250.632812 131.585938 252.59375 132.277344 254.203125 133.546875 C 256.277344 135.167969 257.546875 137.59375 257.660156 140.25 C 257.777344 142.910156 256.855469 145.453125 255.011719 147.300781 Z M 255.011719 147.300781 " fill-opacity="1" fill-rule="nonzero"/></g><path fill="#000000" d="M 188.765625 170.875 C 187.730469 170.875 186.695312 170.875 185.773438 170.875 C 185.542969 171.796875 185.3125 172.839844 185.082031 173.761719 Z M 188.765625 170.875 " fill-opacity="1" fill-rule="nonzero"/></svg>